<svg width="709" height="709" viewBox="0 0 709 709" fill="none" xmlns="http://www.w3.org/2000/svg">
<g clip-path="url(#clip0_18_3)">
<path d="M571.774 -7.62939e-06H137.226C61.4381 -7.62939e-06 0 61.4381 0 137.226V571.774C0 647.562 61.4381 709 137.226 709H571.774C647.562 709 709 647.562 709 571.774V137.226C709 61.4381 647.562 -7.62939e-06 571.774 -7.62939e-06Z" fill="#C01B0C"/>
<path d="M126.954 352.92L341.89 567.856C349.327 575.293 361.386 575.293 368.823 567.856L583.759 352.92C595.757 340.923 587.258 320.408 570.293 320.409L140.421 320.409C123.454 320.409 114.957 340.923 126.954 352.92Z" fill="#DFD095"/>
<path fill-rule="evenodd" clip-rule="evenodd" d="M128.208 351.667L343.144 566.603C349.888 573.347 360.825 573.348 367.57 566.603L582.506 351.667C593.387 340.786 585.679 322.18 570.293 322.182L570.293 320.409C587.258 320.408 595.757 340.923 583.759 352.92L368.823 567.856C361.386 575.293 349.327 575.293 341.89 567.856L126.954 352.92C114.957 340.923 123.454 320.409 140.421 320.409L570.293 320.409V322.182L140.421 322.182C125.033 322.182 117.327 340.786 128.208 351.667Z" fill="black"/>
<path d="M126.955 207.531L341.891 422.468C349.328 429.904 361.387 429.905 368.824 422.468L583.76 207.532C595.757 195.534 587.259 175.019 570.294 175.021L140.421 175.021C123.455 175.021 114.958 195.534 126.955 207.531Z" fill="#DFD095"/>
<path fill-rule="evenodd" clip-rule="evenodd" d="M128.208 206.278L343.144 421.215C349.888 427.959 360.825 427.959 367.57 421.215L582.506 206.279C593.387 195.398 585.679 176.792 570.293 176.793L570.293 175.021C587.258 175.02 595.757 195.534 583.759 207.532L368.823 422.468C361.386 429.905 349.327 429.905 341.89 422.468L126.954 207.532C114.957 195.534 123.454 175.021 140.421 175.021L570.293 175.021V176.793L140.421 176.793C125.033 176.793 117.327 195.398 128.208 206.278Z" fill="black"/>
</g>
<defs>
<clipPath id="clip0_18_3">
<rect width="709" height="709" fill="white"/>
</clipPath>
</defs>
</svg>
